<svg xmlns="http://www.w3.org/2000/svg" xmlns:xlink="http://www.w3.org/1999/xlink" width="294.239" height="183.026" class="typst-doc" viewBox="0 0 220.679 137.269"><path fill="#fff" d="M0 0v137.27h220.68V0Z" class="typst-shape"/><g class="typst-group"><path fill="#ff413699" stroke="#000" stroke-dasharray="3 3" d="M115.551 26.624v91.762h62.362V26.624z" class="typst-shape"/><path fill="none" d="M14.543 98.543H52.15v21.348H14.543z" class="typst-shape"/><g class="typst-group"><g class="typst-group"><g class="typst-text" transform="matrix(1 0 0 -1 21.543 112.781)"><use xlink:href="#a"/><use xlink:href="#b" x="9.229"/><use xlink:href="#c" x="16.335"/></g></g></g><path fill="none" d="M59.476 26.066H85.08v20.23H59.476z" class="typst-shape"/><g class="typst-group"><g class="typst-group"><use xlink:href="#d" class="typst-text" transform="matrix(1 0 0 -1 64.476 38.58)"/><use xlink:href="#e" class="typst-text" transform="matrix(1 0 0 -1 72.825 41.296)"/></g></g><path fill="none" stroke="#000" stroke-width="1.5" d="M90.04 64.528V47.52M90.04 24.843V7.835M61.693 64.528h28.346M90.039 7.835V5H75.866v2.835M90.04 64.528h45.835" class="typst-shape"/><path fill="none" d="M191.171 32.304h24.508v7.755h-24.508z" class="typst-shape"/><g class="typst-group"><g class="typst-group"><use xlink:href="#f" class="typst-text" transform="matrix(1 0 0 -1 191.171 39.817)"/><use xlink:href="#g" class="typst-text" transform="matrix(1 0 0 -1 196.671 39.817)"/><use xlink:href="#f" class="typst-text" transform="matrix(1 0 0 -1 199.73 39.817)"/><use xlink:href="#h" class="typst-text" transform="matrix(1 0 0 -1 207.43 39.817)"/></g></g><path fill="none" stroke="#000" stroke-width="1.5" d="M157.59 64.528h45.835v-2.835" class="typst-shape"/><path fill="none" d="M69.718 92.165h40.642v21.755H69.718z" class="typst-shape"/><g class="typst-group"><g class="typst-group"><use xlink:href="#i" class="typst-text" transform="matrix(1 0 0 -1 76.718 106.678)"/><use xlink:href="#j" class="typst-text" transform="matrix(1 0 0 -1 82.218 106.678)"/><use xlink:href="#j" class="typst-text" transform="matrix(1 0 0 -1 87.718 106.678)"/><use xlink:href="#k" class="typst-text" transform="matrix(1 0 0 -1 95.418 106.678)"/></g></g><path fill="none" stroke="#000" stroke-width="1.5" d="M61.693 87.205H78.7M101.378 87.205h17.008M118.386 87.205h21.968M153.11 87.205h21.969" class="typst-shape"/><path fill="none" d="M125.777 124.888h41.91v7.381h-41.91z" class="typst-shape"/><g class="typst-group"><g class="typst-group"><g class="typst-text" transform="matrix(1 0 0 -1 125.777 132.126)"><use xlink:href="#l"/><use xlink:href="#m" x="5.335"/><use xlink:href="#n" x="10.67"/><use xlink:href="#o" x="21.45"/><use xlink:href="#p" x="26.565"/><use xlink:href="#q" x="31.68"/><use xlink:href="#r" x="36.795"/></g></g></g><path fill="none" stroke="#000" stroke-width="1.5" d="M175.079 87.205h28.346v2.834" class="typst-shape"/><path fill="#7fdbff" stroke="#000" stroke-width="1.5" d="M5 53.189v45.354h56.693V53.19z" class="typst-shape"/><path fill="none" d="M36.637 55.184h25.056v18.687H36.637z" class="typst-shape"/><g class="typst-group"><g class="typst-group"><g class="typst-text" transform="matrix(1 0 0 -1 42.307 68.092)"><use xlink:href="#s"/><use xlink:href="#t" x="6.457"/></g></g></g><path fill="none" d="M50.354 66.578h11.339v18.576H50.354z" class="typst-shape"/><path fill="none" d="M36.527 77.905h25.166v18.599H36.527z" class="typst-shape"/><g class="typst-group"><g class="typst-group"><g class="typst-text" transform="matrix(1 0 0 -1 42.197 90.813)"><use xlink:href="#u"/><use xlink:href="#t" x="6.567"/></g></g></g><path fill="#fff" stroke="#000" stroke-width="1.5" d="M85.079 47.52H95V24.843h-9.921z" class="typst-shape"/><path stroke="#000" stroke-width=".4" d="M88.622 64.528a1.418 1.418 0 0 0 2.835 0 1.418 1.418 0 0 0-2.835 0Z" class="typst-shape"/><path fill="none" stroke="#000" stroke-width="1.5" d="M75.866 7.835v7.937M75.866 25.126l5.4-9.354h-10.8zM135.394 49.748h22.677M143.331 49.748l-7.456 14.78" class="typst-shape"/><path stroke="#000" stroke-width="1.5" d="m138.326 59.669.655-6.02 3.797 1.915z" class="typst-shape"/><path fill="none" stroke="#000" stroke-width="1.5" d="M135.875 64.528ZM150.134 49.748l7.456 14.78" class="typst-shape"/><path fill="none" stroke="#000" stroke-width=".55" d="m146.463 39.861 3.34-5.786" class="typst-shape"/><path stroke="#000" stroke-width=".55" d="m144.195 43.789.795-4.778 2.946 1.7z" class="typst-shape"/><path fill="none" stroke="#000" stroke-width=".55" d="m151.659 42.861 3.34-5.786" class="typst-shape"/><path stroke="#000" stroke-width=".55" d="m149.391 46.789.795-4.778 2.946 1.7z" class="typst-shape"/><path fill="none" stroke="#000" stroke-width="1.5" d="M203.425 61.693V44.685M196.922 53.973l6.503-9.288 6.504 9.288" class="typst-shape"/><path fill="#fff" stroke="#000" stroke-width="1.5" d="M78.7 82.244v9.921h22.678v-9.92zM153.11 87.205l-12.756 7.364V79.84z" class="typst-shape"/><path fill="none" stroke="#000" stroke-width="1.5" d="M153.11 87.205h-12.756M153.11 80.118v14.173" class="typst-shape"/><path fill="none" stroke="#000" stroke-width=".55" d="m143.095 96.738 3.34 5.786" class="typst-shape"/><path stroke="#000" stroke-width=".55" d="m148.703 106.452-3.74-3.078 2.945-1.7z" class="typst-shape"/><path fill="none" stroke="#000" stroke-width=".55" d="m148.291 93.738 3.34 5.786" class="typst-shape"/><path stroke="#000" stroke-width=".55" d="m153.899 103.452-3.74-3.078 2.946-1.7z" class="typst-shape"/><path fill="none" stroke="#000" stroke-width="1.5" d="M203.425 90.04v7.936M203.425 107.331l5.4-9.355h-10.8z" class="typst-shape"/></g><defs><symbol id="a" overflow="visible"><path d="M7.293 1.276c.055-.891.011-.902-.704-.935-.066-.066-.066-.297 0-.363.407.011.847.022 1.177.022s.836-.011 1.199-.022c.066.066.066.297 0 .363-.748.033-.781.077-.847.99l-.33 4.631c-.044.594.011.748.759.792.066.066.066.297 0 .363l-1.441-.022-2.332-5.577c-.044-.11-.077-.154-.099-.154s-.055.055-.088.143L2.332 7.095l-1.595.022c-.066-.066-.066-.297 0-.363.759-.044.825-.066.748-.891l-.44-4.532C.979.671.847.396.22.341.154.275.154.044.22-.022.55-.011.902 0 1.166 0S1.87-.011 2.2-.022c.066.066.066.297 0 .363-.726.055-.781.396-.726 1.012l.418 4.411h.022L4.191.055c.033-.077.099-.165.165-.165s.11.077.154.165l2.475 5.819h.022Z"/></symbol><symbol id="b" overflow="visible"><path d="M3.927-.11c1.067 0 2.046.506 2.794 1.485-.055.099-.132.165-.253.165C5.687.682 4.939.341 3.916.341c-1.485 0-2.508 1.672-2.508 3.278 0 .946.253 1.738.649 2.233.55.671 1.188.979 1.76.979 1.518 0 2.123-.902 2.409-1.848.132-.044.242-.011.363.055-.055.572-.132 1.1-.242 1.705-.561.055-1.056.495-2.409.495-.935 0-1.716-.341-2.365-.935C.847 5.632.407 4.554.407 3.41c0-1.914 1.155-3.52 3.52-3.52"/></symbol><symbol id="c" overflow="visible"><path d="M1.892 5.753c0 .913.165.968 1.012 1.001.066.066.066.297 0 .363a76 76 0 0 0-1.485-.022c-.429 0-.88.011-1.309.022-.066-.066-.066-.297 0-.363.66-.033.847-.088.847-1.001v-3.19C.957.319 2.409-.11 3.531-.11c2.255 0 2.794 1.397 2.794 3.355v2.508c0 .88.187.924.847 1.001.066.066.066.297 0 .363a53 53 0 0 0-1.122-.022c-.231 0-.77.011-1.276.022-.066-.066-.066-.297 0-.363.825-.077 1.012-.11 1.012-1.001V3.047c0-1.232-.165-2.706-2.024-2.706-.528 0-.979.198-1.309.517-.539.517-.561 1.353-.561 2.068Z"/></symbol><symbol id="d" overflow="visible"><path d="M8.129 5.841c0 .561-.286.99-.847 1.298-.451.253-.99.374-1.595.374H2.585c-.253 0-.363-.011-.363-.264 0-.077.033-.132.099-.143.11-.011.198-.022.253-.022.33-.011.517-.033.572-.044s.088-.044.088-.099a1 1 0 0 0-.044-.198L1.738.902C1.683.66 1.573.506 1.408.451 1.331.429 1.133.418.792.418.55.418.451.407.451.165q0-.181.198-.165l1.364.033L3.399 0c.176-.011.264.088.264.253 0 .11-.121.165-.352.165-.44 0-.66.055-.66.154 0 0 .011.022.033.176l.704 2.849h1.265c.759 0 1.144-.319 1.144-.946 0-.099-.055-.341-.154-.737-.121-.462-.176-.77-.176-.935 0-.836.649-1.221 1.485-1.221.308 0 .605.143.902.418s.451.572.451.88c0 .11-.055.165-.176.165-.077 0-.143-.055-.176-.176-.121-.341-.275-.594-.451-.737s-.341-.22-.506-.22c-.253 0-.385.209-.385.616 0 .264.033.671.11 1.232.033.231.044.396.044.517 0 .583-.308 1.012-.924 1.276 1.034.253 2.288.99 2.288 2.112m-1.43.935q.33-.214.33-.726c0-.22-.044-.473-.143-.77q-.445-1.353-2.244-1.353H3.476l.693 2.783q.082.347.264.363c.055.011.275.011.66.011.715 0 1.133-.022 1.606-.308"/></symbol><symbol id="e" overflow="visible"><path d="M1.779 5.059c0-.085.092-.131.285-.131q.357-.002.415-.038c.008-.008.008-.031.008-.054L1.455.662C1.417.516 1.371.424 1.31.385 1.247.347 1.086.331.809.331.63.331.547.308.547.131.57.046.577 0 .7 0c.177 0 .808.03.985.03.37 0 .847-.03 1.017-.03.13 0 .192.07.192.2q.002.105-.077.116c-.084.007-.154.015-.2.015-.239.008-.431-.008-.431.1l.47 1.925h1.355c.546 0 1.062.147 1.547.431.578.332.863.747.863 1.256 0 .4-.193.716-.578.939-.315.185-.693.277-1.124.277H2.056c-.177 0-.277-.023-.277-.2m2.687-.131q1.119.002 1.117-.724c0-.17-.039-.37-.108-.6q-.3-.938-1.594-.94H2.703L3.21 4.69c.062.239.054.239.362.239Z"/></symbol><symbol id="f" overflow="visible"><path d="M3.333 3.883c.726.275 1.408.968 1.408 1.903 0 .473-.231.858-.682 1.155a2.46 2.46 0 0 1-1.353.385c-.495 0-.924-.132-1.309-.385-.429-.286-.649-.66-.649-1.133 0-.363.242-.616.594-.616s.594.253.594.605c0 .363-.209.561-.627.583.286.385.737.583 1.353.583.66 0 .99-.385.99-1.166 0-.462-.088-.847-.253-1.166-.297-.528-.704-.627-1.386-.627-.132-.022-.198-.077-.198-.176 0-.165.077-.165.297-.165h.473c.825 0 1.243-.583 1.243-1.76 0-.935-.341-1.749-1.177-1.749-.715 0-1.243.242-1.562.726a.636.636 0 0 1 .671.649.63.63 0 0 1-.649.649c-.429 0-.649-.22-.649-.671 0-.539.242-.968.726-1.309.429-.297.935-.44 1.496-.44a2.43 2.43 0 0 1 1.639.616c.473.407.704.913.704 1.529 0 1.034-.814 1.749-1.694 1.98"/></symbol><symbol id="g" overflow="visible"><path d="M2.112.583a.587.587 0 0 1-.583.583.587.587 0 0 1-.583-.583C.946.264 1.21 0 1.529 0s.583.264.583.583"/></symbol><symbol id="h" overflow="visible"><path d="M6.842 6.391q.264.677 1.188.693v.429c-.473-.033-.836-.044-1.1-.033l-1.287.033v-.418c.539-.011.803-.187.803-.506a.7.7 0 0 0-.055-.198L4.444 1.254 2.398 6.633c-.033.11-.055.176-.055.187q0 .264.891.264v.429c-.462-.033-.99-.044-1.595-.033l-1.43.033v-.429c.407 0 .671-.022.792-.055s.209-.143.275-.33L3.806.022c.066-.176.165-.264.308-.264q.214 0 .297.231Z"/></symbol><symbol id="i" overflow="visible"><path d="M2.959 7.326q-.677-.693-1.98-.693v-.429c.572 0 1.045.088 1.408.264V.902c0-.198-.044-.33-.143-.385S1.87.429 1.43.429h-.385V0q.413.033 1.782.033 1.37 0 1.782-.033v.429h-.385c-.451 0-.726.033-.814.088s-.143.187-.143.385v6.094c0 .264-.022.33-.308.33"/></symbol><symbol id="j" overflow="visible"><path d="M2.739-.242C4.29-.242 5.06 1.012 5.06 3.52c0 1.683-.352 2.805-1.045 3.355a2.05 2.05 0 0 1-1.265.451C1.199 7.326.429 6.061.429 3.52c0-2.024.539-3.762 2.31-3.762m1.232 6.006c.077-.385.11-1.089.11-2.112 0-1.012-.044-1.76-.121-2.244Q3.746.088 2.739.088c-.253 0-.506.099-.737.286-.297.253-.473.77-.55 1.562-.033.275-.044.847-.044 1.716 0 .957.033 1.628.088 1.991.099.605.297.99.605 1.155.242.132.451.198.638.198.715 0 1.111-.583 1.232-1.232"/></symbol><symbol id="k" overflow="visible"><path d="M2.937.275c0 .528-.198 1.342-.583 2.431-.363.979-.539 1.738-.539 2.288 0 1.342.836 2.431 2.145 2.431s2.156-1.089 2.156-2.431c0-.539-.209-1.386-.616-2.519-.341-.968-.506-1.705-.506-2.2 0-.264.044-.275.319-.275h1.771l.374 1.848h-.363a7 7 0 0 0-.198-.825c-.044-.121-.143-.187-.286-.22-.033-.011-.165-.011-.396-.011h-.814q.165.627.957 1.782.957 1.436.957 2.409c0 .825-.363 1.507-1.078 2.046-.649.484-1.408.726-2.266.726q-1.303 0-2.277-.726C.979 6.501.616 5.819.616 4.983q0-.957.957-2.409c.418-.616.781-1.155.957-1.782h-.814c-.374 0-.594.055-.649.154-.11.352-.187.649-.231.902H.473L.847 0h1.782c.253 0 .308.022.308.275"/></symbol><symbol id="l" overflow="visible"><path d="M4.345 6.941c-.638.088-.616.297-1.694.297-1.111 0-2.09-.737-2.09-1.903 0-1.155.957-1.683 1.925-2.057.66-.253 1.474-.561 1.474-1.639C3.96.748 3.465.286 2.585.286 1.562.286.902.759.66 1.848a.45.45 0 0 1-.363-.033C.341.968.385.682.517.143c.693 0 1.001-.253 1.98-.253.495 0 .968.121 1.353.363.638.396 1.034 1.067 1.034 1.771 0 1.166-.88 1.683-1.782 2.024-.66.242-1.76.66-1.76 1.584 0 .616.561 1.232 1.21 1.232 1.067 0 1.408-.682 1.628-1.408.121-.022.264-.011.363.066-.044.528-.088.836-.198 1.419"/></symbol><symbol id="m" overflow="visible"><path d="M3.113 3.553c.935 0 .968-.253 1.001-.748.066-.066.297-.066.363 0-.011.275-.022.594-.022.968s.011.66.022.946c-.066.066-.297.066-.363 0-.033-.605-.066-.748-1.001-.748H2.09v1.98c0 .594.132.704.616.704h.495c1.166 0 1.441-.44 1.683-1.199.132 0 .253.022.341.055-.055.451-.22 1.507-.242 1.595 0 .022-.011.033-.044.033-.187-.033-.242-.044-.517-.044H1.617c-.352 0-.979.011-1.419.022-.066-.066-.066-.297 0-.363.77-.033.957-.088.957-1.001V1.342C1.155.429.968.374.198.341.132.275.132.044.198-.022c.385.011.935.022 1.43.022s1.034-.011 1.419-.022c.066.066.066.297 0 .363-.77.033-.957.088-.957 1.001v2.211Z"/></symbol><symbol id="n" overflow="visible"><path d="M6.798 1.342v4.411c0 .913.187.968.957 1.001.066.066.066.297 0 .363a65 65 0 0 0-1.43-.022c-.407 0-.935.011-1.419.022-.066-.066-.066-.297 0-.363.77-.033.957-.088.957-1.001v-1.76H2.101v1.76c0 .913.187.968.957 1.001.066.066.066.297 0 .363a51 51 0 0 0-1.43-.022c-.55 0-1.001.011-1.419.022-.066-.066-.066-.297 0-.363.77-.033.957-.088.957-1.001V1.342C1.166.429.979.374.209.341.143.275.143.044.209-.022.693-.011 1.221 0 1.639 0c.396 0 .935-.011 1.419-.022.066.066.066.297 0 .363-.77.033-.957.088-.957 1.001v2.189h3.762V1.342c0-.913-.187-.968-.957-1.001-.066-.066-.066-.297 0-.363A71 71 0 0 0 6.336 0c.407 0 .935-.011 1.419-.022.066.066.066.297 0 .363-.77.033-.957.088-.957 1.001"/></symbol><symbol id="o" overflow="visible"><path d="M1.87 5.885h1.969C2.981 3.751 2.112 1.606 1.364-.066l.088-.077.748.033c.627 1.87 1.232 3.696 2.464 6.699l-.176.132a2.7 2.7 0 0 0-.847-.121H1.375c-.374 0-.352.11-.55.154-.033 0-.044 0-.044-.033-.011-.528-.132-1.188-.22-1.76a1 1 0 0 1 .352-.033c.242.88.605.957.957.957"/></symbol><symbol id="p" overflow="visible"><path d="M.671 5.148c0-.231.209-.429.44-.429.187 0 .517.198.517.44 0 .088-.022.154-.044.231s-.088.176-.088.264c0 .275.286.671 1.089.671.396 0 .957-.275.957-1.331 0-.704-.253-1.276-.902-1.936l-.814-.803C.748 1.155.572.627.572-.022c0 0 .561.022.913.022H3.41c.352 0 .858-.022.858-.022.143.583.253 1.408.264 1.738-.066.055-.209.077-.319.055C4.026.99 3.839.715 3.443.715H1.485c0 .528.759 1.276.814 1.331L3.41 3.113c.627.605 1.1 1.089 1.1 1.925 0 1.188-.968 1.672-1.859 1.672-1.221 0-1.98-.902-1.98-1.562"/></symbol><symbol id="q" overflow="visible"><path d="M3.509 2.079c0-1.045-.55-1.815-1.21-1.815-.418 0-.561.275-.726.495-.143.187-.33.352-.561.352-.209 0-.418-.187-.418-.407 0-.451.935-.825 1.562-.825 1.364 0 2.332 1.012 2.332 2.398 0 1.067-.737 2.024-1.969 2.024-.473 0-.88-.099-1.078-.176l.22 1.837c.407-.044.759-.099 1.287-.099.33 0 .704.022 1.155.066l.176.748-.077.044C3.575 6.655 2.981 6.6 2.398 6.6c-.407 0-.803.022-1.188.055L.836 3.487c.583.22 1.001.264 1.397.264.715 0 1.276-.473 1.276-1.672"/></symbol><symbol id="r" overflow="visible"><path d="M2.508-.11c.847 0 2.134.858 2.134 3.443 0 1.089-.264 2.024-.748 2.662-.286.385-.748.715-1.342.715C1.463 6.71.429 5.412.429 3.234c0-1.177.363-2.277.968-2.882A1.52 1.52 0 0 1 2.508-.11m.044 6.435a.73.73 0 0 0 .495-.187c.341-.286.638-1.122.638-2.596 0-1.012-.033-1.705-.187-2.266C3.256.374 2.717.275 2.519.275c-1.023 0-1.133 1.881-1.133 2.838 0 2.706.671 3.212 1.166 3.212"/></symbol><symbol id="s" overflow="visible"><path d="M2.079 1.342v1.859c.924 0 1.133-.165 1.287-.418L4.543.869c.319-.517.792-.979 1.452-.979.165 0 .352.022.462.077.044.077.033.176-.011.264-.495 0-.77.374-1.056.847l-1.386 2.31c.473.154 1.463.726 1.463 1.881 0 .55-.187 1.001-.583 1.375-.528.495-1.21.528-1.903.528-.517 0-.979-.077-1.375-.077-.385 0-.902.011-1.419.022-.066-.066-.066-.297 0-.363.77-.033.957-.088.957-1.001V1.342C1.144.429.957.374.187.341.121.275.121.044.187-.022.682-.011 1.199 0 1.617 0s.935-.011 1.419-.022c.066.066.066.297 0 .363-.77.033-.957.088-.957 1.001m.913 5.456c.671 0 1.463-.242 1.463-1.54 0-1.375-.781-1.683-1.848-1.683h-.528v2.519c0 .319.132.704.913.704"/></symbol><symbol id="t" overflow="visible"><path d="m5.918 1.122-1.683 2.31c-.11.143-.176.253-.176.363a.5.5 0 0 0 .11.33l1.507 1.947c.385.495.726.638 1.221.682.066.066.066.297 0 .363-.33-.011-.737-.022-.99-.022s-.715.011-1.155.022c-.066-.066-.066-.297 0-.363.484-.033.693-.099.429-.462L3.828 4.367c-.066-.088-.132-.132-.176-.132-.033 0-.077.044-.132.121L2.31 6.16c-.319.44-.363.561.253.594.066.066.066.297 0 .363a32.305 32.305 0 0 0-2.376 0c-.066-.066-.055-.297.011-.363.462-.033.671-.088 1.122-.737l1.562-2.233c.088-.132.154-.22.154-.33a.5.5 0 0 0-.11-.253L1.298 1.023C.924.517.572.385.077.341.011.275.011.044.077-.022c.33.011.737.022.99.022s.715-.011 1.155-.022c.066.066.066.297 0 .363-.484.033-.693.088-.429.462l1.452 2.035c.066.088.132.154.165.154.044 0 .088-.033.154-.121L4.928.935c.308-.44.352-.561-.264-.594-.066-.066-.066-.297 0-.363a32.306 32.306 0 0 0 2.376 0c.066.066.055.297-.011.363-.462.033-.649.143-1.111.781"/></symbol><symbol id="u" overflow="visible"><path d="M3.85 1.342v4.202c0 .704.11 1.122.506 1.122h.242c.825 0 1.342-.286 1.529-1.133.121 0 .275.011.374.055a13 13 0 0 0-.143 1.562c0 .011-.022.033-.033.033a39 39 0 0 0-2.464-.088h-.946c-.847 0-2.145.055-2.563.088-.022 0-.044-.022-.044-.033a12 12 0 0 0-.275-1.595c.11-.044.242-.055.374-.055.22.88.726 1.166 1.452 1.166h.539c.407 0 .517-.418.517-1.089V1.342c0-.913-.187-.968-1.067-1.001-.066-.066-.066-.297 0-.363.539.011 1.1.022 1.54.022.418 0 .979-.011 1.529-.022.066.066.066.297 0 .363-.88.033-1.067.088-1.067 1.001"/></symbol></defs></svg>