<svg xmlns="http://www.w3.org/2000/svg" width="448" height="413.333" viewBox="0 0 118.533 109.361"><defs><clipPath id="a" clipPathUnits="userSpaceOnUse"><path d="M51 145h318c4.969 0 9 4.031 9 9v292c0 4.969-4.031 9-9 9H51c-4.969 0-9-4.031-9-9V154c0-4.969 4.031-9 9-9"/></clipPath><clipPath id="b" clipPathUnits="userSpaceOnUse"><path d="M.5-13.75H139v18H.5Z"/></clipPath></defs><path d="M42 145h336v310H42Z" clip-path="url(#a)" style="fill:#1c1c1c;fill-opacity:1;fill-rule:nonzero;stroke:none" transform="translate(-14.817 -51.153)scale(.35278)"/><path d="M53.957 65.685H166.14a3.176 3.176 0 0 1 3.175 3.175V171.87a3.176 3.176 0 0 1-3.175 3.175H53.957a3.176 3.176 0 0 1-3.175-3.175V68.86a3.176 3.176 0 0 1 3.175-3.175m112.183.176H53.957a3 3 0 0 0-2.999 2.999V171.87a3 3 0 0 0 2.999 2.999H166.14a3 3 0 0 0 2.999-2.999V68.86a3 3 0 0 0-2.999-2.999" style="fill:#e1e1e1;fill-opacity:.121569;fill-rule:nonzero;stroke:none;stroke-width:.352778" transform="translate(-50.782 -65.685)"/><text xml:space="preserve" clip-path="url(#b)" transform="translate(4.41 11.906)scale(.35278)"><tspan x="0" y="0" dx="0 -0.50400001 -0.21600001 -0.21600001 -0.21600001 -0.21600001 -0.198 -0.21600001 -0.21600001 -0.21600001 -0.21600001 -0.21600001 -0.198 -0.234 -0.198" style="font-variant:normal;font-weight:400;font-size:18px;font-family:Roboto;writing-mode:lr-tb;fill:#e1e1e1;fill-opacity:1;fill-rule:nonzero;stroke:none">Washing Machine</tspan></text><text xml:space="preserve" x="70.008" y="90.379" style="font-size:4.23333px;stroke-width:.352778" transform="translate(-50.782 -65.685)"><tspan x="70.008" y="90.379" dx="0 0 0 0 0.0889 0 0 0 -0.037041664 0 0 -0.074083328" style="font-variant:normal;font-weight:400;font-size:3.70417px;font-family:Roboto;writing-mode:lr-tb;fill:#e1e1e1;fill-opacity:1;fill-rule:nonzero;stroke:none;stroke-width:.352778">Start Program</tspan></text><path d="M62.6 91.394a.406.406 0 0 1-.397.396h-1.455a.34.34 0 0 1-.265-.106l-1.058-1.11.185-.213a.3.3 0 0 1 .212-.078h.052l.61.45V88.35c0-.159.106-.265.264-.265s.265.106.265.265v1.19l.316.027 1.033.583c.132.052.238.21.238.343zm0-4.895h-4.233c-.291 0-.53.238-.53.529v2.117c0 .29.239.529.53.529h1.058v-.53h-1.058v-2.116H62.6v2.117h-.53v.529h.53c.29 0 .53-.239.53-.53v-2.116c0-.29-.24-.53-.53-.53" style="fill:#44739e;fill-opacity:1;fill-rule:nonzero;stroke:none;stroke-width:.352778" transform="translate(-50.782 -65.685)"/><text xml:space="preserve" x="154.388" y="90.379" style="font-size:4.23333px;stroke-width:.352778" transform="translate(-50.782 -65.685)"><tspan x="154.388" y="90.379" dx="0 0 -0.033337496" style="font-variant:normal;font-weight:500;font-size:3.70417px;font-family:Roboto;writing-mode:lr-tb;fill:#37c8fd;fill-opacity:1;fill-rule:nonzero;stroke:none;stroke-width:.352778">Press</tspan></text><text xml:space="preserve" x="70.008" y="103.079" style="font-size:4.23333px;stroke-width:.352778" transform="translate(-50.782 -65.685)"><tspan x="70.008" y="103.079" dx="0 0 0 0 0 0 -0.025929166 0 0 0 0 0 0 0 0 0 59.901482" style="font-variant:normal;font-weight:400;font-size:3.70417px;font-family:Roboto;writing-mode:lr-tb;fill:#e1e1e1;fill-opacity:1;fill-rule:nonzero;stroke:none;stroke-width:.352778">Display Contents1.49</tspan></text><path d="M60.483 101.05a.794.794 0 1 0 0 1.589.794.794 0 0 0 0-1.588m0 2.117a1.323 1.323 0 1 1 .001-2.647 1.323 1.323 0 0 1 0 2.647m0-3.308a3.13 3.13 0 0 0-2.911 1.985 3.13 3.13 0 0 0 2.91 1.984 3.13 3.13 0 0 0 2.91-1.984 3.13 3.13 0 0 0-2.91-1.985" style="fill:#44739e;fill-opacity:1;fill-rule:nonzero;stroke:none;stroke-width:.352778" transform="translate(-50.782 -65.685)"/><text xml:space="preserve" x="70.008" y="115.779" style="font-size:4.23333px;stroke-width:.352778" transform="translate(-50.782 -65.685)"><tspan x="70.008" y="115.779" dx="0 0 -0.037041664 0 0 -0.07037916 0 0 0 0 0 0 0 0 0 32.68927 0 -0.037041664 0 -0.059266664 0 0 0 0 0 0 -0.055562496" style="font-variant:normal;font-weight:400;font-size:3.70417px;font-family:Roboto;writing-mode:lr-tb;fill:#e1e1e1;fill-opacity:1;fill-rule:nonzero;stroke:none;stroke-width:.352778">Program OptionsPreWash | WaterPlus</tspan></text><path d="M60.483 113.75a.794.794 0 1 0 0 1.589.794.794 0 0 0 0-1.588m0 2.117a1.323 1.323 0 1 1 .001-2.647 1.323 1.323 0 0 1 0 2.647m0-3.308a3.13 3.13 0 0 0-2.911 1.985 3.13 3.13 0 0 0 2.91 1.984 3.13 3.13 0 0 0 2.91-1.984 3.13 3.13 0 0 0-2.91-1.985" style="fill:#44739e;fill-opacity:1;fill-rule:nonzero;stroke:none;stroke-width:.352778" transform="translate(-50.782 -65.685)"/><text xml:space="preserve" x="70.008" y="128.479" style="font-size:4.23333px;stroke-width:.352778" transform="translate(-50.782 -65.685)"><tspan x="70.008" y="128.479" dx="0 0 -0.037041664 0 0 -0.07037916 0 0 0 0 0 0 0 63.570103" style="font-variant:normal;font-weight:400;font-size:3.70417px;font-family:Roboto;writing-mode:lr-tb;fill:#e1e1e1;fill-opacity:1;fill-rule:nonzero;stroke:none;stroke-width:.352778">Program PhaseIdle</tspan></text><path d="M60.483 126.45a.794.794 0 1 0 0 1.589.794.794 0 0 0 0-1.588m0 2.117a1.323 1.323 0 1 1 .001-2.647 1.323 1.323 0 0 1 0 2.647m0-3.308a3.13 3.13 0 0 0-2.911 1.985 3.13 3.13 0 0 0 2.91 1.984 3.13 3.13 0 0 0 2.91-1.984 3.13 3.13 0 0 0-2.91-1.985" style="fill:#44739e;fill-opacity:1;fill-rule:nonzero;stroke:none;stroke-width:.352778" transform="translate(-50.782 -65.685)"/><text xml:space="preserve" x="70.008" y="141.179" style="font-size:4.23333px;stroke-width:.352778" transform="translate(-50.782 -65.685)"><tspan x="70.008" y="141.179" dx="0 0 -0.037041664 0 0 -0.07037916 0 0 0 0 0 0 0 0 0 0 0 0 0 0 45.770405" style="font-variant:normal;font-weight:400;font-size:3.70417px;font-family:Roboto;writing-mode:lr-tb;fill:#e1e1e1;fill-opacity:1;fill-rule:nonzero;stroke:none;stroke-width:.352778">Program Spin SettingSpinMax</tspan></text><path d="M60.483 139.15a.794.794 0 1 0 0 1.589.794.794 0 0 0 0-1.588m0 2.117a1.323 1.323 0 1 1 .001-2.647 1.323 1.323 0 0 1 0 2.647m0-3.308a3.13 3.13 0 0 0-2.911 1.985 3.13 3.13 0 0 0 2.91 1.984 3.13 3.13 0 0 0 2.91-1.984 3.13 3.13 0 0 0-2.91-1.985" style="fill:#44739e;fill-opacity:1;fill-rule:nonzero;stroke:none;stroke-width:.352778" transform="translate(-50.782 -65.685)"/><text xml:space="preserve" x="70.008" y="153.879" style="font-size:4.23333px;stroke-width:.352778" transform="translate(-50.782 -65.685)"><tspan x="70.008" y="153.879" dx="0 0 -0.037041664 0 0 -0.07037916 0 0 0 -0.1778 0 0 0 0 -0.074083328 0 0 0 -0.040745832 50.011868" style="font-variant:normal;font-weight:400;font-size:3.70417px;font-family:Roboto;writing-mode:lr-tb;fill:#e1e1e1;fill-opacity:1;fill-rule:nonzero;stroke:none;stroke-width:.352778">Program Temperature75 °C</tspan></text><path d="M60.483 151.85a.794.794 0 1 0 0 1.589.794.794 0 0 0 0-1.588m0 2.117a1.323 1.323 0 1 1 .001-2.647 1.323 1.323 0 0 1 0 2.647m0-3.308a3.13 3.13 0 0 0-2.911 1.985 3.13 3.13 0 0 0 2.91 1.984 3.13 3.13 0 0 0 2.91-1.984 3.13 3.13 0 0 0-2.91-1.985" style="fill:#44739e;fill-opacity:1;fill-rule:nonzero;stroke:none;stroke-width:.352778" transform="translate(-50.782 -65.685)"/><text xml:space="preserve" x="70.008" y="166.579" style="font-size:4.23333px;stroke-width:.352778" transform="translate(-50.782 -65.685)"><tspan x="70.008" y="166.579" dx="0 0 -0.037041664 0 0 -0.07037916 0 0 0 -0.12964582 0 0 58.949135 0 0 0 -0.037041664" style="font-variant:normal;font-weight:400;font-size:3.70417px;font-family:Roboto;writing-mode:lr-tb;fill:#e1e1e1;fill-opacity:1;fill-rule:nonzero;stroke:none;stroke-width:.352778">Program TypeCottons</tspan></text><path d="M60.483 164.55a.794.794 0 1 0 0 1.589.794.794 0 0 0 0-1.588m0 2.117a1.323 1.323 0 1 1 .001-2.647 1.323 1.323 0 0 1 0 2.647m0-3.308a3.13 3.13 0 0 0-2.911 1.985 3.13 3.13 0 0 0 2.91 1.984 3.13 3.13 0 0 0 2.91-1.984 3.13 3.13 0 0 0-2.91-1.985" style="fill:#44739e;fill-opacity:1;fill-rule:nonzero;stroke:none;stroke-width:.352778" transform="translate(-50.782 -65.685)"/></svg>